<svg xmlns="http://www.w3.org/2000/svg" version="1.1" xmlns:xlink="http://www.w3.org/1999/xlink" xmlns:svgjs="http://svgjs.dev/svgjs" width="2000" height="1500" viewBox="0 0 2000 1500"><rect width="2000" height="1500" fill="#000000"></rect><g transform="matrix(0.49407114624505927,0,0,0.49407114624505927,506.802306745286,250.4048582995951)"><svg viewBox="0 0 244 247" data-background-color="#170e0d" preserveAspectRatio="xMidYMid meet" height="2024" width="2000" xmlns="http://www.w3.org/2000/svg" xmlns:xlink="http://www.w3.org/1999/xlink"><g id="tight-bounds" transform="matrix(1,0,0,1,-0.21567999999996346,-0.09999999999999432)"><svg viewBox="0 0 244.43135999999996 247.2" height="247.2" width="244.43135999999996"><g><svg></svg></g><g><svg viewBox="0 0 244.43135999999996 247.2" height="247.2" width="244.43135999999996"><g transform="matrix(1,0,0,1,0,79.5064677893657)"><svg viewBox="0 0 244.43135999999996 88.18706442126859" height="88.18706442126859" width="244.43135999999996"><g><svg viewBox="0 0 245.65351679999992 88.62799974337491" height="88.18706442126859" width="244.43135999999996"><g><rect width="245.65351679999992" height="2.7145585754353907" x="0" y="48.70605252672419" fill="#ffffff" opacity="1" stroke-width="0" stroke="transparent" fill-opacity="1" class="rect-qz-0" data-fill-palette-color="secondary" rx="1%" id="qz-0" data-palette-color="#efdec0"></rect></g><g transform="matrix(1,0,0,1,0.6110783999999825,58.52678538340406)"><svg viewBox="0 0 244.43135999999996 30.10121435997085" height="30.10121435997085" width="244.43135999999996"><g id="textblocktransform"><svg viewBox="0 0 244.43135999999996 30.10121435997085" height="30.10121435997085" width="244.43135999999996" id="textblock"><g><svg viewBox="0 0 244.43135999999996 30.10121435997085" height="30.10121435997085" width="244.43135999999996"><g transform="matrix(1,0,0,1,0,0)"><svg width="244.43135999999996" viewBox="0.7 -38.9 411.67 50.7" height="30.10121435997085" data-palette-color="#efdec0"><path d="M38.3-38.9L38.3-26.8 29.7-26.8 29.7-30.7 26.5-30.7 26.5-8.2 30-8.2 30 0 9 0 9-8.2 12.5-8.2 12.5-30.7 9.3-30.7 9.3-26.8 0.7-26.8 0.7-38.9 38.3-38.9ZM66.05-8.2L68.25-8.2 68.25 0 55.05 0 55.05-3.4Q53.95-1.8 51.97-0.55 50 0.7 47.15 0.7L47.15 0.7Q43.4 0.7 41.25-1.3 39.1-3.3 39.1-6.95L39.1-6.95Q39.1-16.4 55.15-16.65L55.15-16.65Q55-18.35 53.85-18.98 52.7-19.6 49.95-19.6L49.95-19.6Q47.7-19.6 45.12-19.13 42.55-18.65 40.4-17.85L40.4-17.85 40.4-27.05Q43.05-27.7 46.15-28.1 49.25-28.5 52.2-28.5L52.2-28.5Q59.65-28.5 62.85-25.8 66.05-23.1 66.05-17.45L66.05-17.45 66.05-8.2ZM55.05-11.4L55.05-11.7Q52.8-11.7 51.57-11.1 50.35-10.5 50.35-9.1L50.35-9.1Q50.35-8.25 50.87-7.73 51.4-7.2 52.35-7.2L52.35-7.2Q53.65-7.2 54.35-8.3 55.05-9.4 55.05-11.4L55.05-11.4ZM82.2 0.7Q76.9 0.7 74.22-1.88 71.55-4.45 71.55-10.55L71.55-10.55 71.55-19.6 69.35-19.6 69.35-27.8Q71.25-27.8 72.2-28.78 73.15-29.75 73.15-31.45L73.15-31.45 73.15-33.7 83.75-33.7 83.75-27.8 90.5-27.8 90.5-19.6 83.75-19.6 83.75-11.4Q83.75-9.75 84.47-8.97 85.2-8.2 86.65-8.2L86.65-8.2Q88.55-8.2 90.8-8.65L90.8-8.65 90.8-0.8Q89.4-0.25 87.02 0.23 84.65 0.7 82.2 0.7L82.2 0.7ZM104.74 0.7Q99.44 0.7 96.77-1.88 94.09-4.45 94.09-10.55L94.09-10.55 94.09-19.6 91.89-19.6 91.89-27.8Q93.79-27.8 94.74-28.78 95.69-29.75 95.69-31.45L95.69-31.45 95.69-33.7 106.29-33.7 106.29-27.8 113.04-27.8 113.04-19.6 106.29-19.6 106.29-11.4Q106.29-9.75 107.02-8.97 107.74-8.2 109.19-8.2L109.19-8.2Q111.09-8.2 113.34-8.65L113.34-8.65 113.34-0.8Q111.94-0.25 109.57 0.23 107.19 0.7 104.74 0.7L104.74 0.7ZM129.84 0.7Q122.74 0.7 118.74-3.03 114.74-6.75 114.74-13.9L114.74-13.9Q114.74-21.05 118.74-24.78 122.74-28.5 129.84-28.5L129.84-28.5Q137.04-28.5 140.99-24.73 144.94-20.95 144.94-13.9L144.94-13.9Q144.94-6.75 140.94-3.03 136.94 0.7 129.84 0.7L129.84 0.7ZM129.84-8.2Q131.29-8.2 132.02-8.97 132.74-9.75 132.74-11.4L132.74-11.4 132.74-16.4Q132.74-18.05 132.02-18.82 131.29-19.6 129.84-19.6L129.84-19.6Q128.39-19.6 127.67-18.82 126.94-18.05 126.94-16.4L126.94-16.4 126.94-11.4Q126.94-9.75 127.67-8.97 128.39-8.2 129.84-8.2L129.84-8.2ZM161.44 0.7Q154.34 0.7 150.34-3.03 146.34-6.75 146.34-13.9L146.34-13.9Q146.34-21.05 150.34-24.78 154.34-28.5 161.44-28.5L161.44-28.5Q168.64-28.5 172.59-24.73 176.54-20.95 176.54-13.9L176.54-13.9Q176.54-6.75 172.54-3.03 168.54 0.7 161.44 0.7L161.44 0.7ZM161.44-8.2Q162.89-8.2 163.61-8.97 164.34-9.75 164.34-11.4L164.34-11.4 164.34-16.4Q164.34-18.05 163.61-18.82 162.89-19.6 161.44-19.6L161.44-19.6Q159.99-19.6 159.26-18.82 158.54-18.05 158.54-16.4L158.54-16.4 158.54-11.4Q158.54-9.75 159.26-8.97 159.99-8.2 161.44-8.2L161.44-8.2ZM193.23 0L193.23-8.2 195.73-8.2 195.73-30.7 193.23-30.7 193.23-38.9 216.18-38.9Q222.43-38.9 225.93-36.35 229.43-33.8 229.43-29.05L229.43-29.05Q229.43-26.1 228.03-24.08 226.63-22.05 224.76-21.03 222.88-20 221.13-19.65L221.13-19.65 221.13-19.15Q224.68-18.8 227.53-16.9 230.38-15 230.38-10.1L230.38-10.1Q230.38-4.85 226.43-2.43 222.48 0 216.18 0L216.18 0 193.23 0ZM209.73-22.5L212.43-22.5Q213.88-22.5 214.61-23.28 215.33-24.05 215.33-25.7L215.33-25.7 215.33-27.5Q215.33-29.15 214.61-29.93 213.88-30.7 212.43-30.7L212.43-30.7 209.73-30.7 209.73-22.5ZM209.73-8.2L212.78-8.2Q214.23-8.2 214.96-8.97 215.68-9.75 215.68-11.4L215.68-11.4 215.68-13.6Q215.68-15.25 214.96-16.03 214.23-16.8 212.78-16.8L212.78-16.8 209.73-16.8 209.73-8.2ZM246.78 0.7Q239.68 0.7 235.68-3.03 231.68-6.75 231.68-13.9L231.68-13.9Q231.68-21.05 235.68-24.78 239.68-28.5 246.78-28.5L246.78-28.5Q253.98-28.5 257.93-24.73 261.88-20.95 261.88-13.9L261.88-13.9Q261.88-6.75 257.88-3.03 253.88 0.7 246.78 0.7L246.78 0.7ZM246.78-8.2Q248.23-8.2 248.96-8.97 249.68-9.75 249.68-11.4L249.68-11.4 249.68-16.4Q249.68-18.05 248.96-18.82 248.23-19.6 246.78-19.6L246.78-19.6Q245.33-19.6 244.61-18.82 243.88-18.05 243.88-16.4L243.88-16.4 243.88-11.4Q243.88-9.75 244.61-8.97 245.33-8.2 246.78-8.2L246.78-8.2ZM278.38 0.7Q271.28 0.7 267.28-3.03 263.28-6.75 263.28-13.9L263.28-13.9Q263.28-21.05 267.28-24.78 271.28-28.5 278.38-28.5L278.38-28.5Q285.58-28.5 289.53-24.73 293.48-20.95 293.48-13.9L293.48-13.9Q293.48-6.75 289.48-3.03 285.48 0.7 278.38 0.7L278.38 0.7ZM278.38-8.2Q279.83-8.2 280.55-8.97 281.28-9.75 281.28-11.4L281.28-11.4 281.28-16.4Q281.28-18.05 280.55-18.82 279.83-19.6 278.38-19.6L278.38-19.6Q276.93-19.6 276.2-18.82 275.48-18.05 275.48-16.4L275.48-16.4 275.48-11.4Q275.48-9.75 276.2-8.97 276.93-8.2 278.38-8.2L278.38-8.2ZM320.43-14.85L325.23-8.2 327.38-8.2 327.38 0 315.13 0 309.98-9.6 308.78-9.6 308.78 0 295.08 0 295.08-8.2 297.28-8.2 297.28-30.7 295.08-30.7 295.08-38.9 308.78-38.9 308.78-18.6 309.98-18.6 316.18-27.8 326.73-27.8 326.73-19.6 324.68-19.6 320.43-14.85ZM341.57-30.55L331.37-30.55 331.37-38.9 341.57-38.9 341.57-30.55ZM344.87 0L328.97 0 328.97-8.2 331.17-8.2 331.17-19.6 328.97-19.6 328.97-27.8 342.67-27.8 342.67-8.2 344.87-8.2 344.87 0ZM377.27-8.2L379.47-8.2 379.47 0 363.67 0 363.67-8.2 365.77-8.2 365.77-16.4Q365.77-18.05 365.07-18.82 364.37-19.6 362.97-19.6L362.97-19.6Q359.97-19.6 359.97-16.4L359.97-16.4 359.97-8.2 362.07-8.2 362.07 0 346.27 0 346.27-8.2 348.47-8.2 348.47-19.6 346.27-19.6 346.27-27.8 359.97-27.8 359.97-23.9Q363.57-28.5 368.97-28.5L368.97-28.5Q373.12-28.5 375.2-25.9 377.27-23.3 377.27-18.75L377.27-18.75 377.27-8.2ZM395.72 11.8Q392.12 11.8 388.84 11.3 385.57 10.8 383.77 10.15L383.77 10.15 383.77 1.95Q389.07 2.9 393.27 2.9L393.27 2.9Q396.12 2.9 397.39 2.02 398.67 1.15 398.67-1.25L398.67-1.25 398.67-3.4Q397.42-1.8 395.44-0.55 393.47 0.7 390.92 0.7L390.92 0.7Q385.82 0.7 383.24-3.1 380.67-6.9 380.67-13.9L380.67-13.9Q380.67-20.9 383.24-24.7 385.82-28.5 390.92-28.5L390.92-28.5Q393.47-28.5 395.44-27.25 397.42-26 398.67-24.4L398.67-24.4 398.67-27.8 412.37-27.8 412.37-19.6 410.17-19.6 410.17-2Q410.17 5.25 406.57 8.53 402.97 11.8 395.72 11.8L395.72 11.8ZM395.77-8.2Q397.22-8.2 397.94-8.97 398.67-9.75 398.67-11.4L398.67-11.4 398.67-16.4Q398.67-18.05 397.94-18.82 397.22-19.6 395.77-19.6L395.77-19.6Q394.32-19.6 393.59-18.82 392.87-18.05 392.87-16.4L392.87-16.4 392.87-11.4Q392.87-9.75 393.59-8.97 394.32-8.2 395.77-8.2L395.77-8.2Z" opacity="1" transform="matrix(1,0,0,1,0,0)" fill="#ffffff" class="wordmark-text-0" data-fill-palette-color="primary" id="text-0"></path></svg></g></svg></g></svg></g></svg></g><g transform="matrix(1,0,0,1,94.0268192772601,0)"><svg viewBox="0 0 57.599878245479715 41.599878245479715" height="41.599878245479715" width="57.599878245479715"><g><svg xmlns="http://www.w3.org/2000/svg" xmlns:xlink="http://www.w3.org/1999/xlink" version="1.1" x="8" y="0" viewBox="0 0 60 60" style="enable-background:new 0 0 60 60;" xml:space="preserve" height="41.599878245479715" width="41.599878245479715" class="icon-icon-0" data-fill-palette-color="accent" id="icon-0"><g fill="#efdec0" data-fill-palette-color="accent"><path d="M59 4h-7V1c0-0.552-0.447-1-1-1h-4c-0.553 0-1 0.448-1 1v3H33V1c0-0.552-0.447-1-1-1h-4c-0.552 0-1 0.448-1 1v3H14V1c0-0.552-0.448-1-1-1H9C8.448 0 8 0.448 8 1v3H1C0.448 4 0 4.448 0 5v16 38c0 0.553 0.448 1 1 1h58c0.553 0 1-0.447 1-1V21 5C60 4.448 59.553 4 59 4zM48 2h2v8h-2V2zM29 2h2v8h-2V2zM10 2h2v8h-2V2zM58 58H2V22h56V58zM58 20H2V6h6v5c0 0.552 0.448 1 1 1h4c0.552 0 1-0.448 1-1V6h13v5c0 0.552 0.448 1 1 1h4c0.553 0 1-0.448 1-1V6h13v5c0 0.552 0.447 1 1 1h4c0.553 0 1-0.448 1-1V6h6V20z" fill="#ffffff" data-fill-palette-color="accent"></path><path d="M8 35h8c0.552 0 1-0.447 1-1v-8c0-0.552-0.448-1-1-1H8c-0.552 0-1 0.448-1 1v8C7 34.553 7.448 35 8 35zM9 27h6v6H9V27z" fill="#ffffff" data-fill-palette-color="accent"></path><path d="M20 35h8c0.552 0 1-0.447 1-1v-8c0-0.552-0.448-1-1-1h-8c-0.552 0-1 0.448-1 1v8C19 34.553 19.448 35 20 35zM21 27h6v6h-6V27z" fill="#ffffff" data-fill-palette-color="accent"></path><path d="M32 35h8v-2h-7v-6h3v-2h-4c-0.553 0-1 0.448-1 1v8C31 34.553 31.447 35 32 35z" fill="#ffffff" data-fill-palette-color="accent"></path><path d="M32 51h8c0.553 0 1-0.447 1-1v-8c0-0.553-0.447-1-1-1h-8c-0.553 0-1 0.447-1 1v8C31 50.553 31.447 51 32 51zM33 43h6v6h-6V43z" fill="#ffffff" data-fill-palette-color="accent"></path><path d="M44 51h8c0.553 0 1-0.447 1-1v-8c0-0.553-0.447-1-1-1h-8c-0.553 0-1 0.447-1 1v8C43 50.553 43.447 51 44 51zM45 43h6v6h-6V43z" fill="#ffffff" data-fill-palette-color="accent"></path><path d="M34.293 29.707l2 2C36.488 31.902 36.744 32 37 32s0.512-0.098 0.707-0.293l4-4-1.414-1.414L37 29.586l-1.293-1.293L34.293 29.707z" fill="#ffffff" data-fill-palette-color="accent"></path><path d="M44 35h8v-2h-7v-6h3v-2h-4c-0.553 0-1 0.448-1 1v8C43 34.553 43.447 35 44 35z" fill="#ffffff" data-fill-palette-color="accent"></path><path d="M46.293 29.707l2 2C48.488 31.902 48.744 32 49 32s0.512-0.098 0.707-0.293l4-4-1.414-1.414L49 29.586l-1.293-1.293L46.293 29.707z" fill="#ffffff" data-fill-palette-color="accent"></path><path d="M8 51h8v-2H9v-6h3v-2H8c-0.552 0-1 0.447-1 1v8C7 50.553 7.448 51 8 51z" fill="#ffffff" data-fill-palette-color="accent"></path><path d="M13 45.586l-1.293-1.293-1.414 1.414 2 2C12.488 47.902 12.744 48 13 48s0.512-0.098 0.707-0.293l4-4-1.414-1.414L13 45.586z" fill="#ffffff" data-fill-palette-color="accent"></path><path d="M20 51h8v-2h-7v-6h3v-2h-4c-0.552 0-1 0.447-1 1v8C19 50.553 19.448 51 20 51z" fill="#ffffff" data-fill-palette-color="accent"></path><path d="M25 45.586l-1.293-1.293-1.414 1.414 2 2C24.488 47.902 24.744 48 25 48s0.512-0.098 0.707-0.293l4-4-1.414-1.414L25 45.586z" fill="#ffffff" data-fill-palette-color="accent"></path></g></svg></g></svg></g><g><rect width="46.72935111726012" height="2.7145585754353907" y="37.885319670044325" x="151.62669752273982" fill="#ffffff" data-fill-palette-color="secondary"></rect><rect width="46.72935111726012" height="2.7145585754353907" y="37.885319670044325" x="47.29746815999998" fill="#ffffff" data-fill-palette-color="secondary"></rect></g></svg></g></svg></g><path d="M0 73.506L0 1 244.431 1 244.431 73.506 241.73 73.506 241.73 3.701 2.701 3.701 2.701 73.506 0 73.506M0 173.694L0 246.2 244.431 246.2 244.431 173.694 241.73 173.694 241.73 243.499 2.701 243.499 2.701 173.694 0 173.694" fill="#ffffff" stroke="transparent" data-fill-palette-color="tertiary"></path></svg></g><defs></defs></svg><rect width="244.43135999999996" height="247.2" fill="none" stroke="none" visibility="hidden"></rect></g></svg></g></svg>